<svg version="1.2" xmlns="http://www.w3.org/2000/svg" viewBox="0 0 2200 2421" width="150" height="165">
	<title>f35a18fc-4498-49f0-9dc4-e69b626e4c76</title>
	<defs>
		<clipPath clipPathUnits="userSpaceOnUse" id="cp1">
			<path d="m990.89 2233.08q0 74.05 0 148.1 0 74.02 0 148.04 0 30.65 0 61.31v6.68c-32.99 0-72.65 0-105.64 0q-41.22 0-82.44 0-49.48 0-98.96 0h-6.68c0-22.87 0-52.42 0-75.28q0-82.75 0-165.5 0-82.78 0-165.55 0-34.36 0-68.72v-8.26l8.08 1.73c32.89 7.08 65.82 14.02 98.84 20.47 27.38 5.35 54.86 10.15 82.26 14.99 32.77 5.07 65.66 9.97 98.67 13.94l5.87 0.71c0 20.47 0 46.86 0 67.34zm-440.96 151.68q-0.13-0.08-0.26-0.15c-24.4-13.18-48.64-26.66-72.75-40.39q0 58.72 0 117.44 0 64.44 0 128.87v6.68c-32.94 0-72.55 0-105.49 0h-6.67c0-53 0-112.66 0-165.66q0-79.54 0-159.09 0-3.89 0-7.79 0-36.56 0-73.13 0-3.56 0-7.13 0-32.64 0-65.29 0-40.49 0-80.98v-8.83l8.49 2.41c32.84 9.32 65.73 18.44 98.71 27.2 27.44 7.29 54.96 14.3 82.5 21.19 32.89 8.23 65.88 16.01 98.88 23.79l5.14 1.21c0 23.48 0 52.24 0 75.71q0 32.4 0 64.8 0 32.4 0 64.79v5.13l-4.95 1.32q-15.95 4.25-31.88 8.6 16.61 9.05 33.3 17.96l3.53 1.88c0 1.01 0 6.03 0 7.04q0 3.4 0 6.8 0 31.79 0 63.58 0 3.09 0 6.18 0 40.44 0 80.87 0 40.38 0 80.76v6.68c-32.99 0-72.65 0-105.64 0h-6.67c0-33.13 0-72.93 0-106.05q0-49.72 0-99.43v-7.32zm1183.78-147.14q-37.62-9.94-75.36-19.41 0 90.95 0 181.91 0 95.21 0 190.41v6.67c-32.99 0-72.65 0-105.64 0h-6.67c0-67.15 0-140.97 0-208.13q0-100.75 0-201.51 0-3.37 0-6.74 0-3.7 0-7.4 0-28.09 0-56.18 0-3.43 0-6.85v-8.04l7.9 1.48q87.07 16.29 173.66 34.97 0-36.74 0-73.48v-5.12l4.94-1.33q49.52-13.3 98.89-27.16l8.48-2.38c0 44.27 0 97.34 0 141.6q0 3.57 0 7.13 0 36.57 0 73.14 0 3.89 0 7.79 0 46.53 0 93.07 0 46.49 0 92.97 0 36.38 0 72.75 0 36.38 0 72.75v6.67c-32.99 0-72.65 0-105.64 0h-6.67c0-23.05 0-52.77 0-75.83q0-34.58 0-69.16 0-51.98 0-103.96 0-51.98 0-103.96v-5.6l5.52-0.97q0.3-0.05 0.59-0.1zm-363.81 18.31q0-24.99 0-49.98 0-29.22 0-58.44v-5.5l5.39-1.05c33-6.43 65.97-12.99 98.86-19.97l8.05-1.71c0 26.9 0 62.04 0 88.94q0 37.72 0 75.45 10.49 2.65 20.98 5.3l5.04 1.27c0 24.9 0 54.99 0 79.89v8.82l-8.49-2.4q-8.77-2.49-17.53-5.02 0 34.85 0 69.69 0 39.28 0 78.55 0 35.38 0 70.76v6.67c-32.99 0-72.65 0-105.63 0h-6.76l0.09-6.75c0.29-22.56 0.75-45.12 0.87-67.68 0.17-30.18 0-60.37 0-90.55q0-42.46 0-84.91v-5.91l-0.87-0.24v-0.59c-6.76-1.87-13.51-3.79-20.27-5.67l-4.88-1.36c0-2.08 0-9.23 0-11.31q0-29.02 0-58.05 0-2.82 0-5.64v-8.39l8.18 1.89q8.48 1.97 16.97 3.89zm-158.9 52.77q-34.65-9.86-69.1-20.37 0 73.32 0 146.65 0 77.77 0 155.55v6.67c-32.99 0-72.65 0-105.64 0h-6.67c0-57.87 0-122.41 0-180.29q0-86.86 0-173.72 0-2.9 0-5.8 0-3.21 0-6.41 0-24.2 0-48.39 0-2.96 0-5.91v-9.88l9.16 3.69c56.26 22.65 113.86 41.54 172.25 57.85q0-28.21 0-56.41v-5.91l5.86-0.71c32.99-4.05 65.9-8.79 98.76-13.84l7.69-1.19c0 34.68 0 77.13 0 111.8q0 2.79 0 5.58 0 28.61 0 57.23 0 3.06 0 6.13 0 36.43 0 72.86 0 36.37 0 72.75 0 28.47 0 56.95 0 28.48 0 56.95v6.67c-32.99 0-72.65 0-105.64 0h-6.67c0-18.37 0-43.42 0-61.8q0-27.56 0-55.13 0-41.4 0-82.8 0-41.46 0-82.91zm-332.42 211.62q0-73.08 0-146.16 0-73.64 0-147.28c-23.04-3.47-46.09-6.97-69.1-10.7q0 75.23 0 150.46 0 75.92 0 151.83 34.55 0.96 69.1 1.85zm-332.41-234.13q0-28.52 0-57.04 0-31.64 0-63.28-34.65-7.49-69.25-15.18 0 46.98 0 93.95 34.41 21.13 69.25 41.55z"/>
		</clipPath>
	</defs>
	<style>
		.s0 { fill: none;stroke: #000000;stroke-miterlimit:2.61312603950501;stroke-width: .5 } 
		.s1 { fill: #ebf855 } 
		.s2 { fill: #000000 } 
		.s3 { fill: #97da04 } 
		.s4 { fill: #dfdfdf } 
		.s5 { fill: #53c406 } 
		.s6 { fill: #215605 } 
		.s7 { fill: #fbfafa } 
		.s8 { fill: #515264 } 
		.s9 { fill: #8f91aa } 
		.s10 { fill: #777688 } 
		.s11 { fill: #ffffff } 
		.s12 { fill: #328a09 } 
		.s13 { fill: #ffbbd7 } 
		.s14 { fill: #aff022 } 
		.s15 { fill: #1c4104 } 
	</style>
	<g id="Layer 1">
		<path id="&lt;Path&gt;" class="s0" d="m-898-592h4000v4000h-4000z"/>
		<path id="&lt;Path&gt;" class="s1" d="m1386.3 444.4c194-34.6-20-79 241.9-236.9 58.2-35.1 12.3-102.9-12.1-171.2 103.4 98.1 115.6 154.6 56 200.6-129.3 100.1-41.2 259.7 31.1 361.4l-134.3 22c0 0 22.9-128.5 11.2-120.1-11.7 8.4-45.9 44.8-45.9 44.8z"/>
		<path id="&lt;Path&gt;" class="s1" d="m1720.7 914.1c215.4-136-76.2-152.2 185.7-310.1 58.2-35.1 12.4-102.9-12.1-171.1 103.4 98 115.6 154.5 56 200.6-129.8 100.4-41.8 275.8-41.8 275.8l-61.4 107.5c0 0 22.9-128.5 11.2-120.1-11.7 8.4-45.9 44.8-45.9 44.8z"/>
		<path id="&lt;Path&gt;" class="s1" d="m2129 1437c-89.9-141.6 26.5-199.8 43.9-303.9 9.2-55.1-71.2-57.2-109.2-114.4-37.6-56.6-37.8-134.8 13.5-186.1-135.4 44.5-105.8 130.2-65.8 194 84.5 135 59.6 207.1-103 195-85.9-6.4 1.1 20.4 1.1 20.4l75.4 36.3c0 0 33.6 21 40.6 33.5 7 12.6 22.3 60.2 22.3 60.2z"/>
		<path id="&lt;Path&gt;" class="s1" d="m818.4 444.4c-194-34.6 20-79-241.9-236.9-58.2-35.1-12.4-102.9 12.1-171.2-103.4 98.1-115.6 154.6-56.1 200.6 129.4 100.1 41.3 259.7-31 361.4l134.3 22c0 0-22.9-128.5-11.2-120.1 11.7 8.4 45.8 44.8 45.8 44.8z"/>
		<path id="&lt;Path&gt;" class="s1" d="m484 914.1c-215.4-136 76.2-152.2-185.7-310.1-58.2-35.1-12.4-102.9 12-171.1-103.3 98-115.5 154.5-56 200.6 129.8 100.4 41.9 275.8 41.9 275.8l61.3 107.5c0 0-22.8-128.5-11.1-120.1 11.7 8.4 45.8 44.8 45.8 44.8z"/>
		<path id="&lt;Path&gt;" class="s1" d="m75.6 1437c89.9-141.6-26.4-199.8-43.8-303.9-9.2-55.1 71.2-57.2 109.2-114.4 37.6-56.6 37.8-134.8-13.5-186.1 135.4 44.5 105.7 130.2 65.8 194-84.6 135-59.6 207.1 103 195 85.9-6.4-1.1 20.4-1.1 20.4l-75.5 36.3c0 0-33.5 21-40.5 33.5-7 12.6-22.3 60.2-22.3 60.2z"/>
		<path id="&lt;Path&gt;" class="s2" d="m990.3 944c0 0-43.4-20-69-68.4 0 0-5.7 31.3 1.4 54.1 0 0-55.6-20.6-79.1-63.4 28.3-49 97.5-78.1 151.7-83.3 0 0-10.7 111.8-5 161z"/>
		<path id="&lt;Path&gt;" class="s2" d="m958.4 1120.1c-66.4-23-98.8-43-129.7-113-222-167.9-76.5-405.6-76.5-405.6-106.1 49.2-109.7 109.7-109.7 109.7 11.4-8.6 34.2-12.1 34.2-12.1-37.2 222 114.9 321.4 114.9 321.4 1.1 43.3 28.2 76.9 28.2 76.9-67.2-29.3-110.5-97.5-110.5-97.5 5.4 59.6 24.9 85.6 24.9 85.6-124.5-55.3-126.7-172.2-126.7-172.2 82.3-130-42.9-239.9-42.9-239.9 90.2-148.7 289.8-144.6 289.8-144.6-83.4 98.8-166 347.8 20.6 447.3 16.3 115.9 83.4 144 83.4 144z"/>
		<path id="&lt;Path&gt;" class="s2" d="m670 1345.7c-68.5 25.9-109.2-26.8-109.2-26.8 37 11.1 35.5-20.4 35.5-20.4-25.7-106.5-194.7-89.4-194.7-89.4-63.7-149.3-19.6-252.2-19.6-252.2 145.7 138.4 406.5 213.1 406.5 213.1l-33.3 62.8c-312.9-88.9-337-174.1-337-174.1 9.3 87.1 49.1 103.7 49.1 103.7 7.4 7.4 187.9 81.5 187.9 81.5 68.5 62.9 14.8 101.8 14.8 101.8z"/>
		<path id="&lt;Path&gt;" class="s2" d="m266.1 1342.7c5.9 217.6 147.9 308.7 147.9 308.7l-19.3 45.5c-70.7-60-128.6-185.1-128.6-185.1 41.4 158.6 118.3 252.3 118.3 252.3l-4.9 61.6-127.6-138.8 10.6-10.6c32-156.2-118.3-172.7-118.3-172.7 52.1-132.6 121.9-160.9 121.9-160.9z"/>
		<path id="&lt;Path&gt;" class="s2" d="m489.5 1602.1c51.6 57.6 92.5 88.7 174.8 132.7 3.6 74.5 32 145.5 32 145.5-71-29.6-97-76.9-97-76.9 4.7 52.1 27.7 78.9 27.7 78.9-126.6-81.6-166-168.7-166-168.7 31.3-55.8 28.5-111.5 28.5-111.5z"/>
		<path id="&lt;Path&gt;" class="s2" d="m683.9 1502.8c-25.1 86.9-46.1 96.3-46.1 96.3-36.6-1-83.7-61.7-83.7-61.7 10.5 50.2 49.2 90 49.2 90-76.4-36.7-117.2-104.7-117.2-104.7 28.2-32.4 59.6-133.9 59.6-133.9 51.4 31.7 106.5 39.1 164.3 17.7z"/>
		<path id="&lt;Path&gt;" class="s2" d="m751.5 1808.4c77.3-81 72.4-207.4 72.4-207.4l26.7 6.1 6.5 7.4c-1.9 64.1-16.7 103.1-16.7 103.1 23.2-16.7 37.1-46.4 37.1-46.4l15.8 24.1c-42.7 90-141.8 113.1-141.8 113.1z"/>
		<path id="&lt;Path&gt;" class="s2" d="m1214.3 944c0 0 43.5-20 69.1-68.4 0 0 5.7 31.3-1.4 54.1 0 0 55.5-20.6 79-63.4-28.2-49-97.4-78.1-151.6-83.3 0 0 10.6 111.8 4.9 161z"/>
		<path id="&lt;Path&gt;" class="s2" d="m1246.3 1120.1c66.3-23 98.7-43 129.7-113 222-167.9 76.5-405.6 76.5-405.6 106.1 49.2 109.6 109.7 109.6 109.7-11.4-8.6-34.1-12.1-34.1-12.1 37.2 222-115 321.4-115 321.4-1 43.3-28.1 76.9-28.1 76.9 67.1-29.3 110.4-97.5 110.4-97.5-5.4 59.6-24.9 85.6-24.9 85.6 124.6-55.3 126.7-172.2 126.7-172.2-82.3-130 43-239.9 43-239.9-90.2-148.7-289.9-144.6-289.9-144.6 83.5 98.8 166.1 347.8-20.5 447.3-16.3 115.9-83.4 144-83.4 144z"/>
		<path id="&lt;Path&gt;" class="s2" d="m1534.7 1345.7c68.5 25.9 109.2-26.8 109.2-26.8-37 11.1-35.5-20.4-35.5-20.4 25.7-106.5 194.7-89.4 194.7-89.4 63.6-149.3 19.5-252.2 19.5-252.2-145.6 138.4-406.4 213.1-406.4 213.1l33.3 62.8c312.9-88.9 337-174.1 337-174.1-9.3 87.1-49.1 103.7-49.1 103.7-7.4 7.4-187.9 81.5-187.9 81.5-68.5 62.9-14.8 101.8-14.8 101.8z"/>
		<path id="&lt;Path&gt;" class="s2" d="m1938.6 1342.7c-5.9 217.6-147.9 308.7-147.9 308.7l19.3 45.5c70.7-60 128.6-185.1 128.6-185.1-41.4 158.6-118.4 252.3-118.4 252.3l4.9 61.6 127.7-138.8-10.7-10.6c-31.9-156.2 118.3-172.7 118.3-172.7-52-132.6-121.8-160.9-121.8-160.9z"/>
		<path id="&lt;Path&gt;" class="s2" d="m1715.1 1602.1c-51.5 57.6-92.4 88.7-174.8 132.7-3.5 74.5-31.9 145.5-31.9 145.5 71-29.6 97-76.9 97-76.9-4.7 52.1-27.7 78.9-27.7 78.9 126.5-81.6 166-168.7 166-168.7-31.3-55.8-28.6-111.5-28.6-111.5z"/>
		<path id="&lt;Path&gt;" class="s2" d="m1102.3 1882.8c67.9-7.3 89.5-59.5 89.5-59.5 4.9 32.8 24 53.5 24 53.5 0.7-55.5 56.9-144.2 56.9-144.2l-39.9 15.6c-1.6-25.3-8.6-24.7-8.6-24.7l-32.8 14-15.1 44.1-17.2-24.2-39.9 0.5-16.9 24.8-16.9-24.8-39.8-0.5-17.2 24.2-15.1-44.1-32.9-14c0 0-7-0.6-8.6 24.7l-39.8-15.6c0 0 56.2 88.7 56.9 144.2 0 0 19-20.7 24-53.5 0 0 21.6 52.2 89.4 59.5z"/>
		<path id="&lt;Path&gt;" class="s2" d="m1102.3 2122.3l153.7-98.2c-21.3-70.4 64-93.1 64-93.1 14.7-61.4 7.1-103.5 7.1-103.5-138 136.4-224.8 149.4-224.8 149.4 0 0-86.7-13-224.7-149.4 0 0-7.7 42.1 7.1 103.5 0 0 85.3 22.7 64 93.1z"/>
		<path id="&lt;Path&gt;" class="s1" d="m1102.3 2384.2l-12.7-4.6c-62.8-22.6-127.6-70.4-178.7-113q-9.5-7.9-19.1-16.2c3.1 21.4 7.7 42.2 13.5 60.1l5.6 55.2c-214-32.4-544.4-224-656.3-410.6-29.2-48.9-50.5-103.7-56.7-160.5-1.7-15.2-2.5-33.3-1.3-50.2l-37.7-39 11-44.2 0.5-1.5c10.1-29.5 6-45.6-22.7-57-17.2-6.9-42.7-10.8-61.4-10.2l-34.5 1c-11.7-118.4 37.8-224.9 128.1-302 30.9-26.3 74.8-54.9 114.2-69.9-16.4-47.1-24.1-98.5-25.1-145.3-2.4-110.8 21.8-205.7 103.6-281.7 46 63.6 62.3 89.4 133.2 135.9-2.2-10.6-4.1-20.9-5.8-30.8l-3.2-18.5 12.9-13.7c29.8-31.7 30.7-62.5 8.1-98.4-21.5-34.2-48-52.1-79.6-74.3l16-29.5c66.1-121.3 176.4-190.9 310.7-213.9 95.3-16.3 160.6-12.4 249.8 18.5-65.8 78.2-124.7 119.8-152.3 227.8-2.1 8.2-4.1 17.7-5.9 27.7 35.6-13.6 75.5-21.7 111.3-25.2l5.2-23.2 129.3-71.9 129.3 71.9 5.3 23.2c35.8 3.5 75.6 11.6 111.2 25.2-1.7-10-3.7-19.5-5.8-27.7-27.6-108-86.5-149.6-152.4-227.8 89.2-30.9 154.6-34.8 249.9-18.5 134.2 23 244.5 92.6 310.7 213.9l16 29.5c-31.7 22.2-58.1 40.1-79.6 74.3-22.7 35.9-21.8 66.7 8.1 98.4l12.9 13.7-3.3 18.5c-1.7 9.9-3.6 20.2-5.7 30.8 70.9-46.5 87.2-72.3 133.1-135.9 81.9 76 106 170.9 103.7 281.7-1 46.8-8.7 98.2-25.1 145.3 39.4 15 83.2 43.6 114.1 69.9 90.3 77.1 139.9 183.6 128.2 302l-34.6-1c-18.6-0.6-44.2 3.3-61.3 10.2-28.7 11.4-32.9 27.5-22.8 57l0.5 1.5 11.1 44.2-37.8 39c1.3 16.9 0.5 35-1.2 50.2-6.2 56.8-27.5 111.6-56.8 160.5-111.8 186.6-442.2 378.2-656.3 410.6l5.7-55.2c5.8-17.9 10.3-38.7 13.5-60.1q-9.6 8.3-19.1 16.2c-51.2 42.6-115.9 90.4-178.7 113z"/>
		<path id="&lt;Path&gt;" class="s2" d="m1102.3 648.2l96.4 53.6 7.8 34.1c0 0 122.1 3.5 183.3 55.1 0 0 15.9-171.1-136.5-303.6 0 0 323.6-61.9 464.1 195.9 0 0-148.9 104.7-49.8 209.9 0 0-13 75-28.6 114.9 0 0 154.9-75 198.8-157.9 86.7 122 74.5 334.2-1.7 433.9 0 0-59.4-33.6-132.2 0 0 0 0 149 72.8 229.7l-13.4 21.3 7.8 61.7c0 0 148-114.3 121.1-341.9 0 0 211.2 73.4 227.2 300 0 0-162.4-4.8-120.8 117l5.6 22.4-35.8 37c0 0 75.3 344.7-633.2 590.7 0 0 25.2-78.5 19.3-161.5 0 0-141.2 143.7-252.2 183.8-110.9-40.1-252.1-183.8-252.1-183.8-6 83 19.2 161.5 19.2 161.5-708.4-246-633.1-590.7-633.1-590.7l-35.9-37 5.6-22.4c41.7-121.8-120.8-117-120.8-117 16.1-226.6 227.3-300 227.3-300-26.9 227.6 121 341.9 121 341.9l7.9-61.7-13.5-21.3c72.9-80.7 72.9-229.7 72.9-229.7-72.9-33.6-132.3 0-132.3 0-76.2-99.7-88.3-311.9-1.6-433.9 43.8 82.9 198.8 157.9 198.8 157.9-15.6-39.9-28.6-114.9-28.6-114.9 99.1-105.2-49.9-209.9-49.9-209.9 140.5-257.8 464.2-195.9 464.2-195.9-152.4 132.5-136.5 303.6-136.5 303.6 61.2-51.6 183.3-55.1 183.3-55.1l7.8-34.1z"/>
		<path id="&lt;Path&gt;" class="s2" d="m1102.3 964.6l74.8-18.3c7.4-74.1-9.2-213.2-9.2-213.2l-65.6-48.4-65.5 48.4c0 0-16.7 139.1-9.2 213.2z"/>
		<path id="&lt;Path&gt;" class="s2" d="m1102.3 1015.3l65.1 47.4c-4.5 35.8-28.6 59.9-28.6 59.9 73.3-47.4 76-82.3 76-82.3l-36.7-59-75.8 17.9-75.8-17.9-36.6 59c0 0 2.6 34.9 76 82.3 0 0-24.2-24.1-28.6-59.9z"/>
		<path id="&lt;Path&gt;" class="s2" d="m1102.3 1442.5c85.5-64.9 269.1-130.9 269.1-130.9 50-71.3-35.2-168.2-35.2-168.2-5.3 104.3-233.9 163.9-233.9 163.9 0 0-228.5-59.6-233.9-163.9 0 0-85.1 96.9-35.1 168.2 0 0 183.6 66 269 130.9z"/>
		<path id="&lt;Path&gt;" class="s2" d="m1365.3 1562.2c99.1-46.5 30.6-178.7 30.6-178.7 0 0-28.9 56.7-100.9 89.8 0 0 22.3-14.4 36.6-48.3 0 0-18 18.1-57.9 32.3 0 0 32.3-24.8 39.9-67.6 0 0-78.2 12-141.4 63.1 0 0 27.1 12.8 78.2 10.6 0 0-29.3 15.7-94.7 12.7 0 0 42.1 33.9 104.5 32.4 0 0-84.2 24.8-157.9-16.6-73.6 41.4-157.8 16.6-157.8 16.6 62.4 1.5 104.5-32.4 104.5-32.4-65.4 3-94.8-12.7-94.8-12.7 51.2 2.2 78.2-10.6 78.2-10.6-63.1-51.1-141.3-63.1-141.3-63.1 7.5 42.8 39.8 67.6 39.8 67.6-39.8-14.2-57.8-32.3-57.8-32.3 14.2 33.9 36.6 48.3 36.6 48.3-72-33.1-100.9-89.8-100.9-89.8 0 0-68.6 132.2 30.6 178.7 0 0-10.8-14.8 6.8-50.9 0 0 54.6 66.7 55.5 121.3 0 0 23.2 27.8 80.6 25 0 0-3.4 5.4-16.8 8.4 0 0-10.3 40.8 57.8 49.9 0 0 5.5-15.2 15.9-26.2 0 0 0.6 20.7 6.7 36.6l42 1.8 14.4-31.7 14.5 31.7 42-1.8c6.1-15.9 6.7-36.6 6.7-36.6 10.3 11 15.8 26.2 15.8 26.2 68.2-9.1 57.8-49.9 57.8-49.9-13.3-3-16.7-8.4-16.7-8.4 57.4 2.8 80.6-25 80.6-25 0.9-54.6 55.5-121.3 55.5-121.3 17.6 36.1 6.8 50.9 6.8 50.9z"/>
		<path id="&lt;Path&gt;" class="s2" d="m1520.8 1502.8c25.1 86.9 46 96.3 46 96.3 36.7-1 83.8-61.7 83.8-61.7-10.5 50.2-49.2 90-49.2 90 76.4-36.7 117.2-104.7 117.2-104.7-28.3-32.4-59.7-133.9-59.7-133.9-51.3 31.7-106.4 39.1-164.3 17.7z"/>
		<path id="&lt;Path&gt;" class="s2" d="m1453.2 1808.4c-77.3-81-72.4-207.4-72.4-207.4l-26.7 6.1-6.5 7.4c1.8 64.1 16.7 103.1 16.7 103.1-23.2-16.7-37.2-46.4-37.2-46.4l-15.7 24.1c42.7 90 141.8 113.1 141.8 113.1z"/>
		<path id="&lt;Path&gt;" class="s2" d="m1737.9 1821.3c-87.1 102-254.4 190.5-254.4 190.5-8.3 69.5-15.1 117.5-46.3 183.7 342.9-93.9 439.5-327.9 439.5-327.9-78.9 62.5-209.5 84.3-209.5 84.3 50.3-39.4 70.7-130.6 70.7-130.6z"/>
		<path id="&lt;Path&gt;" class="s2" d="m466.7 1821.3c87.1 102 254.5 190.5 254.5 190.5 8.2 69.5 15.1 117.5 46.2 183.7-342.8-93.9-439.4-327.9-439.4-327.9 78.9 62.5 209.5 84.3 209.5 84.3-50.3-39.4-70.8-130.6-70.8-130.6z"/>
		<path id="&lt;Path&gt;" class="s3" d="m537.5 1951.9c0 0-130.6-21.8-209.5-84.3 0 0 96.6 234 439.4 327.9-31.1-66.2-38-114.2-46.2-183.7 0 0-167.4-88.5-254.5-190.5 0 0 20.5 91.2 70.8 130.6z"/>
		<path id="&lt;Path&gt;" class="s3" d="m461 1713.6c0 0 39.4 87.1 166 168.7 0 0-23-26.8-27.7-78.9 0 0 26 47.3 97 76.9 0 0-28.4-71-32-145.5-82.3-44-123.2-75.1-174.8-132.7 0 0 2.8 55.7-28.5 111.5z"/>
		<path id="&lt;Path&gt;" class="s4" d="m384.4 1764.1c0 0-76.9-93.7-118.3-252.3 0 0 57.9 125.1 128.6 185.1l19.3-45.5c0 0-142-91.1-147.9-308.7 0 0-69.8 28.3-121.9 160.9 0 0 150.3 16.5 118.3 172.7l-10.6 10.6 127.6 138.8z"/>
		<path id="&lt;Path&gt;" class="s3" d="m486.1 1522.7c0 0 40.8 68 117.2 104.7 0 0-38.7-39.8-49.2-90 0 0 47.1 60.7 83.7 61.7 0 0 21-9.4 46.1-96.3l26.1-96.3c-57.8 21.4-112.9 14-164.3-17.7 0 0-31.4 101.5-59.6 133.9z"/>
		<path id="&lt;Path&gt;" class="s4" d="m560.8 1318.9c0 0 40.7 52.7 109.2 26.8 0 0 53.7-38.9-14.8-101.8 0 0-180.5-74.1-187.9-81.5 0 0-39.8-16.6-49.1-103.7 0 0 24.1 85.2 337 174.1l33.3-62.8c0 0-260.8-74.7-406.5-213.1 0 0-44.1 102.9 19.6 252.2 0 0 169-17.1 194.7 89.4 0 0 1.5 31.5-35.5 20.4z"/>
		<path id="&lt;Path&gt;" class="s4" d="m607.5 913.3c0 0 2.2 116.9 126.7 172.2 0 0-19.5-26-24.9-85.6 0 0 43.3 68.2 110.5 97.5 0 0-27.1-33.6-28.2-76.9 0 0-152.1-99.4-114.9-321.4 0 0-22.8 3.5-34.2 12.1 0 0 3.6-60.5 109.7-109.7 0 0-145.5 237.7 76.5 405.6 30.9 70 63.3 90 129.7 113 0 0-67.1-28.1-83.4-144-186.6-99.5-104-348.5-20.6-447.3 0 0-199.6-4.1-289.8 144.6 0 0 125.2 109.9 42.9 239.9z"/>
		<path id="&lt;Path&gt;" class="s3" d="m843.6 866.3c23.5 42.8 79.1 63.4 79.1 63.4-7.1-22.8-1.4-54.1-1.4-54.1 25.6 48.4 69 68.4 69 68.4-5.7-49.2 5-161 5-161-54.2 5.2-123.4 34.3-151.7 83.3z"/>
		<path id="&lt;Compound Path&gt;" fill-rule="evenodd" class="s4" d="m1102.3 698.5l65.6 34.6c0 0 16.6 139.1 9.2 213.2l-74.8 18.3-74.7-18.3c-7.5-74.1 9.2-213.2 9.2-213.2zm-43.6 172.8c-17.9 77.8 43.6 76 43.6 76 0 0 61.5 1.8 43.6-76 0 0-6.7 34-43.6 34-36.9 0-43.6-34-43.6-34z"/>
		<path id="&lt;Path&gt;" class="s5" d="m1099.5 1010.5l-75.8-17.9-36.7 59c0 0 2.5 31.4 50.3 70.4 0-19.5 0-39.3 0-56.5l31.1-17.9 31.1-18 31.1 18 31.1 17.9c0 17.2 0 37 0 56.5 47.8-39 50.2-70.4 50.2-70.4l-36.6-59z"/>
		<path id="&lt;Path&gt;" class="s6" d="m1021.6 1107.9c4.6 4.6 9.8 9.3 15.7 14.1 0-19.5 0-39.3 0-56.5l31.1-17.9 31.1-18 31.1 18 31.1 17.9c0 17.2 0 37 0 56.5 5.9-4.8 11.1-9.5 15.7-14.1v-40.8l-77.9-44.9-77.9 44.9z"/>
		<path id="&lt;Path&gt;" class="s3" d="m1209.4 783c0 0 10.6 111.8 4.9 161 0 0 43.5-20 69.1-68.4 0 0 5.7 31.3-1.4 54.1 0 0 55.5-20.6 79-63.4-28.2-49-97.4-78.1-151.6-83.3z"/>
		<path id="&lt;Path&gt;" class="s4" d="m1350.2 528.8c83.5 98.8 166.1 347.8-20.5 447.3-16.3 115.9-83.4 144-83.4 144 66.3-23 98.7-43 129.7-113 222-167.9 76.5-405.6 76.5-405.6 106.1 49.2 109.6 109.7 109.6 109.7-11.4-8.6-34.1-12.1-34.1-12.1 37.2 222-115 321.4-115 321.4-1 43.3-28.1 76.9-28.1 76.9 67.1-29.3 110.4-97.5 110.4-97.5-5.4 59.6-24.9 85.6-24.9 85.6 124.6-55.3 126.7-172.2 126.7-172.2-82.3-130 43-239.9 43-239.9-90.2-148.7-289.9-144.6-289.9-144.6z"/>
		<path id="&lt;Path&gt;" class="s4" d="m1822.6 956.9c-145.6 138.4-406.4 213.1-406.4 213.1l33.3 62.8c312.9-88.9 337-174.1 337-174.1-9.3 87.1-49.1 103.7-49.1 103.7-7.4 7.4-187.9 81.5-187.9 81.5-68.5 62.9-14.8 101.8-14.8 101.8 68.5 25.9 109.2-26.8 109.2-26.8-37 11.1-35.5-20.4-35.5-20.4 25.7-106.5 194.7-89.4 194.7-89.4 63.6-149.3 19.5-252.2 19.5-252.2z"/>
		<path id="&lt;Path&gt;" class="s3" d="m1658.9 1388.8c-51.3 31.7-106.4 39.1-164.3 17.7l26.2 96.3c25.1 86.9 46 96.3 46 96.3 36.7-1 83.8-61.7 83.8-61.7-10.5 50.2-49.2 90-49.2 90 76.4-36.7 117.2-104.7 117.2-104.7-28.3-32.4-59.7-133.9-59.7-133.9z"/>
		<path id="&lt;Path&gt;" class="s4" d="m1938.6 1342.7c-5.9 217.6-147.9 308.7-147.9 308.7l19.3 45.5c70.7-60 128.6-185.1 128.6-185.1-41.4 158.6-118.4 252.3-118.4 252.3l4.9 61.6 127.7-138.8-10.7-10.6c-31.9-156.2 118.3-172.7 118.3-172.7-52-132.6-121.8-160.9-121.8-160.9z"/>
		<path id="&lt;Path&gt;" class="s3" d="m1743.7 1713.6c-31.3-55.8-28.6-111.5-28.6-111.5-51.5 57.6-92.4 88.7-174.8 132.7-3.5 74.5-31.9 145.5-31.9 145.5 71-29.6 97-76.9 97-76.9-4.7 52.1-27.7 78.9-27.7 78.9 126.5-81.6 166-168.7 166-168.7z"/>
		<path id="&lt;Path&gt;" class="s3" d="m1737.9 1821.3c-87.1 102-254.4 190.5-254.4 190.5-8.3 69.5-15.1 117.5-46.3 183.7 342.9-93.9 439.5-327.9 439.5-327.9-78.9 62.5-209.5 84.3-209.5 84.3 50.3-39.4 70.7-130.6 70.7-130.6z"/>
		<path id="&lt;Path&gt;" class="s7" d="m1256 2024.1c-21.3-70.4 64-93.1 64-93.1 14.7-61.4 7.1-103.5 7.1-103.5-138 136.4-224.8 149.4-224.8 149.4 0 0-86.7-13-224.7-149.4 0 0-7.7 42.1 7.1 103.5 0 0 85.3 22.7 64 93.1l68.7 43.9c-31.1-45.3-30.4-81.5-30.4-81.5 41.8 48.1 95.4 53.7 115.3 54 20-0.3 73.5-5.9 115.4-54 0 0 0.6 36.2-30.4 81.5z"/>
		<path id="&lt;Path&gt;" class="s8" d="m1102.3 1882.8c67.9-7.3 89.5-59.5 89.5-59.5 4.9 32.8 24 53.5 24 53.5 0.7-55.5 56.9-144.2 56.9-144.2l-39.9 15.6c-1.6-25.3-8.6-24.7-8.6-24.7l-32.8 14-15.1 44.1-17.2-24.2-39.9 0.5-16.9 24.8-16.9-24.8-39.8-0.5-17.2 24.2-15.1-44.1-32.9-14c0 0-7-0.6-8.6 24.7l-39.8-15.6c0 0 56.2 88.7 56.9 144.2 0 0 19-20.7 24-53.5 0 0 21.6 52.2 89.4 59.5z"/>
		<path id="&lt;Compound Path&gt;" fill-rule="evenodd" class="s9" d="m1260.2 1508.5c-62.4 1.5-104.5-32.4-104.5-32.4 65.4 3 94.7-12.7 94.7-12.7-51.1 2.2-78.2-10.6-78.2-10.6 63.2-51.1 141.4-63.1 141.4-63.1-7.6 42.8-39.9 67.6-39.9 67.6 39.9-14.2 57.9-32.3 57.9-32.3-14.3 33.9-36.6 48.3-36.6 48.3 72-33.1 100.9-89.8 100.9-89.8 0 0 68.5 132.2-30.6 178.7 0 0 10.8-14.8-6.8-50.9 0 0-54.6 66.7-55.5 121.3 0 0-23.2 27.8-80.6 25 0 0 3.4 5.4 16.7 8.4 0 0 10.4 40.8-57.8 49.9 0 0-5.5-15.2-15.8-26.2 0 0-0.6 20.7-6.7 36.6l-42 1.8-14.5-31.7-14.4 31.7-42-1.8c-6.1-15.9-6.7-36.6-6.7-36.6-10.4 11-15.9 26.2-15.9 26.2-68.1-9.1-57.8-49.9-57.8-49.9 13.4-3 16.8-8.4 16.8-8.4-57.4 2.8-80.6-25-80.6-25-0.9-54.6-55.5-121.3-55.5-121.3-17.6 36.1-6.8 50.9-6.8 50.9-99.2-46.5-30.6-178.7-30.6-178.7 0 0 28.9 56.7 100.9 89.8 0 0-22.4-14.4-36.6-48.3 0 0 18 18.1 57.8 32.3 0 0-32.3-24.8-39.8-67.6 0 0 78.2 12 141.3 63.1 0 0-27 12.8-78.2 10.6 0 0 29.4 15.7 94.8 12.7 0 0-42.1 33.9-104.5 32.4 0 0 84.2 24.8 157.8-16.6 73.7 41.4 157.9 16.6 157.9 16.6zm-119.9 137.4l27.2-23.8c-2.6-20.6-26.4-41.8-26.4-41.8 14.8 3.3 18.4 6 18.4 6-23.8-42.5-57.1-64.6-57.2-64.6-0.1 0-33.4 22.1-57.1 64.6 0 0 3.5-2.7 18.3-6 0 0-23.8 21.2-26.3 41.8l27.2 23.8c0 0 28.3-10.3 37.9-28.3 9.6 18 38 28.3 38 28.3z"/>
		<path id="&lt;Path&gt;" class="s10" d="m1102.3 1442.5c85.5-64.9 269.1-130.9 269.1-130.9 50-71.3-35.2-168.2-35.2-168.2-5.3 104.3-233.9 163.9-233.9 163.9 0 0-228.5-59.6-233.9-163.9 0 0-85.1 96.9-35.1 168.2 0 0 183.6 66 269 130.9z"/>
		<path id="&lt;Path&gt;" class="s11" d="m847.8 1171.8c-21.5 34.1-47.6 92.5-14.5 139.8 0 0 183.6 66 269 130.9 0 0-84.6-80.7-253-134.2 0 0-32.7-44.8-1.5-136.5z"/>
		<path id="&lt;Path&gt;" class="s9" d="m840.4 1717.6c0 0 14.8-39 16.7-103.1l-6.5-7.4-26.7-6.1c0 0 4.9 126.4-72.4 207.4 0 0 99.1-23.1 141.8-113.1l-15.8-24.1c0 0-13.9 29.7-37.1 46.4z"/>
		<path id="&lt;Path&gt;" class="s9" d="m1311.4 1695.3c42.7 90 141.8 113.1 141.8 113.1-77.3-81-72.4-207.4-72.4-207.4l-26.7 6.1-6.5 7.4c1.8 64.1 16.7 103.1 16.7 103.1-23.2-16.7-37.2-46.4-37.2-46.4z"/>
		<path id="&lt;Compound Path&gt;" fill-rule="evenodd" class="s2" d="m1102.3 1363.3v52.1c0 0 109.4-78.2 221.2-117.3 0 0-42.7 3.3-221.2 65.2zm-221.2-65.2c111.9 39.1 221.2 117.3 221.2 117.3v-52.1c-178.4-61.9-221.2-65.2-221.2-65.2z"/>
		<path id="&lt;Path&gt;" class="s2" d="m721.1 2151.9c-7.6-36.7-15-91.7-11.6-130-17.4 27.3-24.7 37.4-29.1 71.7-66.7-12.6-176.2-77.2-176.2-77.2 75.1 78.6 216.9 135.5 216.9 135.5z"/>
		<path id="&lt;Path&gt;" class="s2" d="m1483.6 2151.9c7.6-36.7 15-91.7 11.6-130 17.4 27.3 24.7 37.4 29.1 71.7 66.7-12.6 176.2-77.2 176.2-77.2-75.1 78.6-216.9 135.5-216.9 135.5z"/>
		<path id="&lt;Path&gt;" class="s10" d="m791.6 1020.5c0 0-152.1-99.4-114.9-321.4 0 0-22.8 3.5-34.2 12.1 0 0 0.9-14.2 13.8-34.4 0 0-21.7 16.3-27.1 42.3 0 0-31.8-30.8-64.6-45.7 0 0 51.9 45.6 66.9 112.7 0 0 25.9 68.5-7.1 134.4 0 0 7.2 83.3 57.3 133.1 14.5 11.8 31.8 22.7 52.5 31.9 0 0-19.5-26-24.9-85.6 0 0 43.3 68.2 110.5 97.5 0 0-27.1-33.6-28.2-76.9z"/>
		<path id="&lt;Path&gt;" class="s10" d="m673.4 655.1c6.7-7.1 14.9-14.5 24.9-22l-38-52.7c-13 7.6-25.7 16.4-37.9 26.4z"/>
		<path id="&lt;Path&gt;" class="s12" d="m554.1 1537.4c0 0 47.1 60.7 83.7 61.7 0 0 21-9.4 46.1-96.3l26.1-96.3c-41.2 15.2-81.1 15.9-119.2 3.5 24.7 27.8 60.1 27.4 60.1 27.4-20.8 78.1-18.8 130.3-114.3 65.3-2.3 42.7 12.5 69.9 12.5 69.9-11.4-6.2-26.3-17.9-38.8-28.4-1.8 1.3-3.8 2.5-6 3.6 19 23.1 52.3 57.2 99 79.6 0 0-38.7-39.8-49.2-90z"/>
		<path id="&lt;Path&gt;" class="s12" d="m664.3 1734.8c-65.9-35.2-105.3-62.2-144.8-101.2 0 0 11.9 98 50.1 154.6 0 0-16.7-0.3-40.2-8.1 12.1 22.5 26.6 45.2 40.5 56.5 5.5 4.6 8.1 8.2 8.4 11 14.6 11.5 30.7 23.2 48.7 34.7 0 0-23-26.8-27.7-78.9 0 0 26 47.3 97 76.9 0 0-28.4-71-32-145.5z"/>
		<path id="&lt;Path&gt;" class="s12" d="m328 1867.6c0 0 104.7 119.2 333.2 158 0 0-69.9 13.1-157-9.2 0 0 109.5 64.6 176.2 77.2 4.4-34.3 11.7-44.4 29.1-71.7-3.4 38.3 4 93.3 11.6 130 0 0-6.7-2.7-18-7.7 0 0-52.1-4.9-102-13.1 47.6 24.7 102.7 46.9 166.3 64.4-31.1-66.2-38-114.2-46.2-183.7 0 0-167.4-88.5-254.5-190.5 0 0 20.5 91.2 70.8 130.6 0 0-130.6-21.8-209.5-84.3z"/>
		<path id="&lt;Path&gt;" class="s1" d="m485.6 1709.8c11.2-27.1 17.1-80.4 17.1-80.4l16.8 4.2c-9.8-9.6-19.7-20.1-30-31.5 0 0 2.8 55.7-28.5 111.5 0 0 23 50.9 90.3 111.3-31.9-30.6-65.7-115.1-65.7-115.1z"/>
		<path id="&lt;Path&gt;" class="s10" d="m752.2 601.5c0 0 40.1-51.3 102.2-72.7 0 0-81.5-1.7-163.8 35.9l33.3 37-25.6 31.4c14.1-10.6 31.8-21.3 53.9-31.6z"/>
		<path id="&lt;Compound Path&gt;" class="s10" d="m737.4 1183c0 0-56.2 9.5-142.2-11.7l-12.6-82.2c-10.7-5.3-21.6-10.8-32.6-16.5l21.4 92.3 0.9 4q11.5 5 24.1 10.2c42.2 17.3 94.4 35.4 158.8 53.7l33.3-62.8c0 0-69.5-19.9-156.8-58.2z"/>
		<path id="&lt;Path&gt;" class="s10" d="m524.7 1146l-15.6-96.1c-13.6-8-27.1-16.4-40.4-25.1l20.5 100.9c10.3 6.5 22 13.3 35.5 20.3z"/>
		<path id="&lt;Path&gt;" class="s10" d="m401.6 1209.1c120.3-50.5 270.5 78.2 188.6 106.5-4.9 5-13.7 8-29.4 3.3 0 0 40.7 52.7 109.2 26.8 0 0 53.7-38.9-14.8-101.8 0 0-180.5-74.1-187.9-81.5 0 0-39.8-16.6-49.1-103.7 0 0-33.6-40.2-36.2-101.8 0 0-44.1 102.9 19.6 252.2z"/>
		<path id="&lt;Path&gt;" class="s10" d="m266.1 1511.8c0 0-26.3-89.9 0-169.1-77.5 60.1-82.4 155.9-82.4 155.9 96.7 43.6 83.3 138 83.3 138q-0.1 6.7-0.7 13.9c-0.7 8.2-1.9 16.7-3.8 25.8l-10.6 10.6 127.6 138.8 4.9-61.6c0 0-76.9-93.7-118.3-252.3z"/>
		<path id="&lt;Compound Path&gt;" fill-rule="evenodd" class="s10" d="m414 1651.4l-19.3 45.5c-37.1-31.5-70.6-80.8-94.1-120.6 0 0 15.2 21.4 35.9 43.2l8.5-9.8c-27-37.9-58.1-93.5-61.6-152.7 39.1 135.8 130.6 194.4 130.6 194.4zm-63.8-18.3c11.3 10.6 23.6 20.1 35.5 26 0 0-12.5-12.5-28.8-33.4z"/>
		<path id="&lt;Path&gt;" class="s2" d="m1127.5 1087l-28-22.9-28.1 22.9 28.1 52.4z"/>
		<path id="&lt;Path&gt;" class="s11" d="m868.4 1143.4c0 0-33.4 125.2 91.3 173.7 33.3 9.7 79.5 24.3 142.6 46.2 63.2-21.9 109.4-36.5 142.7-46.2 124.6-48.5 91.2-173.7 91.2-173.7-5.3 104.3-233.9 163.9-233.9 163.9 0 0-228.5-59.6-233.9-163.9z"/>
		<path id="&lt;Compound Path&gt;" fill-rule="evenodd" class="s8" d="m878.6 1525.1c67.5 56.3 10.9 109.9 128.8 96.9 0 0 4.5-41.6 45-83.4-54 0.6-107.9-30.1-107.9-30.1 0 0 84.2 24.8 157.8-16.6 73.7 41.4 157.9 16.6 157.9 16.6 0 0-53.9 30.7-107.9 30.1 40.5 41.8 45 83.4 45 83.4 117.9 13 61.3-40.6 128.7-96.9-18 10.8-49.5 38.1-49.5 38.1 22.7-64.4 91.3-107.2 91.3-107.2-50.5 18.1-72.8 17.3-72.8 17.3 72-33.1 100.9-89.8 100.9-89.8 0 0 68.5 132.2-30.6 178.7 0 0 10.8-14.8-6.8-50.9 0 0-54.6 66.7-55.5 121.3 0 0-20.7 24.7-71.3 25.2q-4.5 0-9.3-0.2c0 0 3.4 5.4 16.7 8.4 0 0 10.4 40.8-57.8 49.9 0 0-5.5-15.2-15.8-26.2 0 0-0.6 20.7-6.7 36.6l-42 1.8-14.5-31.7-14.4 31.7-42-1.8c-6.1-15.9-6.7-36.6-6.7-36.6-10.4 11-15.9 26.2-15.9 26.2-68.1-9.1-57.8-49.9-57.8-49.9 13.4-3 16.8-8.4 16.8-8.4q-4.9 0.2-9.4 0.2c-50.6-0.5-71.2-25.2-71.2-25.2-0.9-54.6-55.5-121.3-55.5-121.3-17.6 36.1-6.8 50.9-6.8 50.9-99.2-46.5-30.6-178.7-30.6-178.7 0 0 28.9 56.7 100.9 89.8 0 0-22.3 0.8-72.8-17.3 0 0 68.6 42.8 91.2 107.2 0 0-31.4-27.3-49.5-38.1zm261.7 120.8l27.2-23.8q-0.1-0.9-0.3-1.8c-3.6-20-26.1-40-26.1-40 14.8 3.3 18.4 6 18.4 6-23.8-42.5-57.1-64.6-57.2-64.6-0.1 0-33.4 22.1-57.1 64.6 0 0 3.5-2.7 18.3-6 0 0-22.4 20-26 40q-0.2 0.9-0.3 1.8l27.2 23.8c0 0 28.3-10.3 37.9-28.3 9.6 18 38 28.3 38 28.3z"/>
		<path id="&lt;Path&gt;" class="s13" d="m891.1 1389.7c7.5 42.8 39.8 67.6 39.8 67.6-39.8-14.2-57.8-32.3-57.8-32.3 0 0 45.1 71.7 175.9 51.1-65.4 3-94.8-12.7-94.8-12.7 51.2 2.2 78.2-10.6 78.2-10.6-63.1-51.1-141.3-63.1-141.3-63.1z"/>
		<path id="&lt;Path&gt;" class="s13" d="m1313.6 1389.7c-7.6 42.8-39.9 67.6-39.9 67.6 39.9-14.2 57.9-32.3 57.9-32.3 0 0-45.1 71.7-175.9 51.1 65.4 3 94.7-12.7 94.7-12.7-51.1 2.2-78.2-10.6-78.2-10.6 63.2-51.1 141.4-63.1 141.4-63.1z"/>
		<path id="&lt;Path&gt;" class="s9" d="m1145.3 1828.5c4.4-36.4-90.3-36.4-85.9 0-9.9-7.3 1.5-23.1 1.5-23.1-24.5 19.4-6.6 35.7-6.6 35.7-29.5-11.3-46.2-31-46.2-31-4 26.1-14.3 33.5-14.3 33.5-9.3-28.1-36.1-64.7-36.1-64.7 14.9 29.9 30.8 68.5 31.2 97.9 0 0 19-20.7 24-53.5 0 0 21.6 52.2 89.4 59.5 67.9-7.3 89.5-59.5 89.5-59.5 4.9 32.8 24 53.5 24 53.5 0.3-29.4 16.2-68 31.1-97.9 0 0-26.7 36.6-36 64.7 0 0-10.4-7.4-14.3-33.5 0 0-16.7 19.7-46.3 31 0 0 18-16.3-6.5-35.7 0 0 11.3 15.8 1.5 23.1z"/>
		<path id="&lt;Path&gt;" class="s1" d="m481.4 1990.1c-112.2-47.4-153.4-122.5-153.4-122.5 0 0 51.8 125.5 214.3 229.6 41.9 11.8 76.3 17.9 76.3 17.9-127.6-58.4-187.1-133.3-187.1-133.3 18.3 5 49.9 8.3 49.9 8.3z"/>
		<path id="&lt;Path&gt;" class="s1" d="m600.1 1454.7c-30.2-11.3-33.2-54.3-33.2-54.3q-10.7-5.2-21.2-11.6c0 0-31.4 101.5-59.6 133.9 0 0 4.1 6.9 12.2 17.4 28.2-15 38.9-56.9 38.9-56.9 72.5 44.6 69.7-15.4 69.7-15.4-34.4-8.6-37.7-22.8-37.7-22.8 9.7 9.1 30.9 9.7 30.9 9.7z"/>
		<path id="&lt;Path&gt;" class="s10" d="m840 997.6c0 0-34.3-12.3-82.9-62.3 17.9 24.7 41.3 48.9 71.6 71.8 30.9 70 63.3 90 129.7 113 0 0-67.1-28.1-83.4-144-71.7-38.3-103.7-98.6-111.1-164 0 0 5.9 122.3 90.3 173.1 0 0 1 34.5 18.6 56.6 0 0-22.3-13.1-32.8-44.2z"/>
		<path id="&lt;Path&gt;" class="s9" d="m1071.4 2008.5c-170.2-60.3-191.1-143.7-193.8-181 0 0-7.7 42.1 7.1 103.5 0 0 85.3 22.7 64 93.1l68.7 43.9c-31.1-45.3-30.4-81.5-30.4-81.5 41.8 48.1 95.4 53.7 115.3 54 20-0.3 73.5-5.9 115.4-54 0 0 0.6 36.2-30.4 81.5l68.7-43.9c-21.3-70.4 64-93.1 64-93.1 14.7-61.4 7.1-103.5 7.1-103.5-2.7 37.3-23.7 120.7-193.9 181 16.8 0.5 29.3 3.3 48.3-6.2-21.5 16-50.2 24.3-79.2 24.8-28.9-0.5-57.7-8.8-79.1-24.8 19 9.5 31.5 6.7 48.2 6.2z"/>
		<path id="&lt;Path&gt;" class="s8" d="m840.4 1717.6c-20.3 41-73.1 79.8-86 88.8 42.3-19.7 77.5-52 77.5-52-9.7 15.3-43.2 40.3-43.2 40.3 32.7-15.2 78.9-45.2 104.6-99.4l-15.8-24.1c0 0-13.9 29.7-37.1 46.4z"/>
		<path id="&lt;Path&gt;" class="s4" d="m751.5 1808.4c96-84.6 99.1-201.3 99.1-201.3l-26.7-6.1c0 0 4.9 126.4-72.4 207.4z"/>
		<path id="&lt;Path&gt;" class="s8" d="m1364.3 1717.6c20.2 41 73 79.8 86 88.8-42.3-19.7-77.5-52-77.5-52 9.7 15.3 43.1 40.3 43.1 40.3-32.6-15.2-78.8-45.2-104.5-99.4l15.7-24.1c0 0 14 29.7 37.2 46.4z"/>
		<path id="&lt;Path&gt;" class="s4" d="m1453.2 1808.4c-96-84.6-99.1-201.3-99.1-201.3l26.7-6.1c0 0-4.9 126.4 72.4 207.4z"/>
		<path id="&lt;Path&gt;" class="s4" d="m920.6 1529.1c0 0 22.8 22.3 26.8 56 0 0-8.8 1.1-20.4-8.4 0 0 10.3 38.9 58.7 32.4 0 0-4.5-33.1 19.5-47.5-37.9 6-63-37.4-84.6-32.5z"/>
		<path id="&lt;Path&gt;" class="s4" d="m1284.1 1529.1c0 0-22.8 22.3-26.8 56 0 0 8.7 1.1 20.4-8.4 0 0-10.4 38.9-58.8 32.4 0 0 4.6-33.1-19.4-47.5 37.9 6 63-37.4 84.6-32.5z"/>
		<path id="&lt;Path&gt;" class="s10" d="m1413 1020.5c0 0 152.2-99.4 115-321.4 0 0 22.7 3.5 34.1 12.1 0 0-0.8-14.2-13.7-34.4 0 0 21.7 16.3 27.1 42.3 0 0 31.8-30.8 64.6-45.7 0 0-51.9 45.6-67 112.7 0 0-25.8 68.5 7.2 134.4 0 0-7.2 83.3-57.4 133.1-14.4 11.8-31.8 22.7-52.5 31.9 0 0 19.5-26 24.9-85.6 0 0-43.3 68.2-110.4 97.5 0 0 27.1-33.6 28.1-76.9z"/>
		<path id="&lt;Path&gt;" class="s10" d="m1531.3 655.1c-6.8-7.1-15-14.5-25-22l38.1-52.7c12.9 7.6 25.7 16.4 37.8 26.4z"/>
		<path id="&lt;Path&gt;" class="s1" d="m1719.1 1709.8c-11.3-27.1-17.1-80.4-17.1-80.4l-16.8 4.2c9.8-9.6 19.7-20.1 29.9-31.5 0 0-2.7 55.7 28.6 111.5 0 0-23 50.9-90.3 111.3 31.9-30.6 65.7-115.1 65.7-115.1z"/>
		<path id="&lt;Path&gt;" class="s10" d="m1452.5 601.5c0 0-40.2-51.3-102.3-72.7 0 0 81.5-1.7 163.9 35.9l-33.3 37 25.5 31.4c-14.1-10.6-31.7-21.3-53.8-31.6z"/>
		<path id="&lt;Compound Path&gt;" class="s10" d="m1467.3 1183c0 0 56.1 9.5 142.1-11.7l12.6-82.2c10.8-5.3 21.7-10.8 32.6-16.5l-21.3 92.3-1 4q-11.4 5-24.1 10.2c-42.2 17.3-94.3 35.4-158.7 53.7l-33.3-62.8c0 0 69.5-19.9 156.8-58.2z"/>
		<path id="&lt;Path&gt;" class="s10" d="m1680 1146l15.5-96.1c13.7-8 27.2-16.4 40.5-25.1l-20.5 100.9c-10.3 6.5-22.1 13.3-35.5 20.3z"/>
		<path id="&lt;Path&gt;" class="s10" d="m1803.1 1209.1c-120.4-50.5-270.5 78.2-188.6 106.5 4.9 5 13.6 8 29.4 3.3 0 0-40.7 52.7-109.2 26.8 0 0-53.7-38.9 14.8-101.8 0 0 180.5-74.1 187.9-81.5 0 0 39.8-16.6 49.1-103.7 0 0 33.5-40.2 36.1-101.8 0 0 44.1 102.9-19.5 252.2z"/>
		<path id="&lt;Path&gt;" class="s10" d="m1938.6 1511.8c0 0 26.3-89.9 0-169.1 77.4 60.1 82.3 155.9 82.3 155.9-96.6 43.6-83.2 138-83.2 138q0 6.7 0.6 13.9c0.7 8.2 2 16.7 3.8 25.8l10.7 10.6-127.7 138.8-4.9-61.6c0 0 77-93.7 118.4-252.3z"/>
		<path id="&lt;Compound Path&gt;" fill-rule="evenodd" class="s10" d="m1921.3 1457c-3.5 59.2-34.6 114.8-61.6 152.7l8.5 9.8c20.7-21.8 35.9-43.2 35.9-43.2-23.5 39.8-57.1 89.1-94.1 120.6l-19.3-45.5c0 0 91.5-58.6 130.6-194.4zm-73.5 168.7c-16.3 20.9-28.9 33.4-28.9 33.4 12-5.9 24.2-15.4 35.6-26z"/>
		<path id="&lt;Path&gt;" class="s1" d="m1723.3 1990.1c112.2-47.4 153.4-122.5 153.4-122.5 0 0-51.8 125.5-214.4 229.6-41.8 11.8-76.2 17.9-76.2 17.9 127.5-58.4 187.1-133.3 187.1-133.3-18.3 5-49.9 8.3-49.9 8.3z"/>
		<path id="&lt;Path&gt;" class="s1" d="m1604.5 1454.7c30.3-11.3 33.3-54.3 33.3-54.3q10.6-5.2 21.1-11.6c0 0 31.4 101.5 59.7 133.9 0 0-4.1 6.9-12.2 17.4-28.2-15-38.9-56.9-38.9-56.9-72.6 44.6-69.7-15.4-69.7-15.4 34.3-8.6 37.7-22.8 37.7-22.8-9.7 9.1-31 9.7-31 9.7z"/>
		<path id="&lt;Path&gt;" class="s10" d="m1364.6 997.6c0 0 34.4-12.3 83-62.3-17.9 24.7-41.4 48.9-71.6 71.8-31 70-63.4 90-129.7 113 0 0 67.1-28.1 83.4-144 71.7-38.3 103.7-98.6 111.1-164 0 0-5.9 122.3-90.3 173.1 0 0-1 34.5-18.6 56.6 0 0 22.2-13.1 32.7-44.2z"/>
		<path id="&lt;Path&gt;" class="s12" d="m1650.6 1537.4c0 0-47.1 60.7-83.8 61.7 0 0-20.9-9.4-46-96.3l-26.2-96.3c41.3 15.2 81.1 15.9 119.2 3.5-24.6 27.8-60 27.4-60 27.4 20.8 78.1 18.8 130.3 114.2 65.3 2.4 42.7-12.4 69.9-12.4 69.9 11.4-6.2 26.3-17.9 38.7-28.4 1.9 1.3 3.9 2.5 6 3.6-18.9 23.1-52.3 57.2-98.9 79.6 0 0 38.7-39.8 49.2-90z"/>
		<path id="&lt;Path&gt;" class="s12" d="m1540.3 1734.8c66-35.2 105.3-62.2 144.9-101.2 0 0-12 98-50.1 154.6 0 0 16.7-0.3 40.2-8.1-12.1 22.5-26.6 45.2-40.5 56.5-5.6 4.6-8.1 8.2-8.5 11-14.5 11.5-30.7 23.2-48.6 34.7 0 0 23-26.8 27.7-78.9 0 0-26 47.3-97 76.9 0 0 28.4-71 31.9-145.5z"/>
		<path id="&lt;Path&gt;" class="s12" d="m1876.7 1867.6c0 0-104.8 119.2-333.3 158 0 0 70 13.1 157.1-9.2 0 0-109.5 64.6-176.2 77.2-4.4-34.3-11.7-44.4-29.1-71.7 3.4 38.3-4 93.3-11.6 130 0 0 6.7-2.7 17.9-7.7 0 0 52.1-4.9 102.1-13.1-47.7 24.7-102.8 46.9-166.4 64.4 31.2-66.2 38-114.2 46.3-183.7 0 0 167.3-88.5 254.4-190.5 0 0-20.4 91.2-70.7 130.6 0 0 130.6-21.8 209.5-84.3z"/>
		<path id="&lt;Path&gt;" class="s12" d="m908.8 873.2c0 0-39.9-19.6-10.1-59-23 13.5-42.8 30.9-55.1 52.1 23.5 42.8 79.1 63.4 79.1 63.4-7.1-22.8-1.4-54.1-1.4-54.1 25.6 48.4 69 68.4 69 68.4-5.7-49.2 5-161 5-161 0 0-28.8 64.8-24.3 101.6 0 0-48.2-22.2-43.1-59.6 0 0-17.8 23.5-19.1 48.2z"/>
		<path id="&lt;Path&gt;" class="s12" d="m1295.8 873.2c0 0 39.9-19.6 10.2-59 23 13.5 42.8 30.9 55 52.1-23.5 42.8-79 63.4-79 63.4 7.1-22.8 1.4-54.1 1.4-54.1-25.6 48.4-69.1 68.4-69.1 68.4 5.7-49.2-4.9-161-4.9-161 0 0 28.7 64.8 24.3 101.6 0 0 48.2-22.2 43.1-59.6 0 0 17.8 23.5 19 48.2z"/>
		<path id="&lt;Compound Path&gt;" fill-rule="evenodd" class="s10" d="m1142.3 849.9c-3 10.7-25.8 11.9-25.8 11.9 55.2-30.8 51.4-128.7 51.4-128.7 0 0 16.6 139.1 9.2 213.2l-74.8 18.3-74.7-18.3c-7.5-74.1 9.2-213.2 9.2-213.2 0 0-3.8 97.9 51.4 128.7 0 0-22.8-1.2-25.9-11.9 0 0 5.6 38.2 40 39.3 34.5-1.1 40-39.3 40-39.3zm3.6 21.4c0 0-6.6 33.9-43.6 33.9-36.9 0-43.6-33.9-43.6-33.9-17.9 77.8 43.6 76 43.6 76 0 0 61.5 1.8 43.6-76z"/>
		<path id="&lt;Path&gt;" class="s14" d="m1099.5 1029.6l31.1 18 31.1 17.9v35.9 35.9l-31.1 18-31.1 18-31.1-18-31.1-18v-35.9-35.9l31.1-17.9z"/>
		<path id="&lt;Path&gt;" class="s5" d="m1099.5 1051.2l-43.5 25.1v50.3l43.5 25.1 43.5-25.1v-50.3z"/>
		<path id="&lt;Path&gt;" class="s13" d="m1099.5 1074.8l-23.1 13.3v26.7l23.1 13.3 23.1-13.3v-26.7z"/>
		<path id="&lt;Path&gt;" class="s12" d="m1090.7 1123.1l-14.3-8.3v-18.6-8.1l-3.7-2.2-16.6-9.7-0.1 0.1v33.9 5.8 10.6l43.5 25.1 43.5-25.1v-6.7-2-41.6l-16.7 9.7-3.7 2.1v8.1 18.6l-14.4 8.3-8.7 5z"/>
		<path id="&lt;Path&gt;" class="s5" d="m1099.5 1151.7l-43.5-25.1v-10.6-5.8-33.9l0.1-0.1-18.5-10.9-0.3 0.2c0 11.1 0 23.4 0 35.9q0 0.4 0 0.7v19.9 15.3l31.1 18 31.1 18 31.1-18 31.1-18v-15.3-15.4q0-2.6 0-5.2 0-8 0-15.9v-20l-18.7 10.8v41.6 2 6.7z"/>
		<path id="&lt;Path&gt;" class="s15" d="m1056 1126.6l-18.7 10.7 31.1 18 31.1 18 31.1-18 31.1-18-18.7-10.7-43.5 25.1z"/>
		<path id="&lt;Path&gt;" class="s6" d="m1056 1126.6l43.5 25.1 43.5-25.1-20.4-11.8-14.4 8.3-8.7 5-8.8-5-14.3-8.3-11.6 6.7-0.4 0.2z"/>
		<path id="&lt;Path&gt;" class="s1" d="m1099.5 977.4c78.5 0 142.2 63.7 142.2 142.3 0 78.6-63.7 142.3-142.2 142.3-78.6 0-142.3-63.7-142.3-142.3 0-78.6 63.7-142.3 142.3-142.3z"/>
		<path id="&lt;Path&gt;" class="s1" d="m935.9 448.5c118.7 1.6 38.2-103.6 135.1-117.5-55.2 45.3 25 112.1-126.9 217.7 0 0 24.6-40.4 25.9-49.9 2.8-19.1-21.8-39.1-34.1-50.3z"/>
		<path id="&lt;Path&gt;" class="s1" d="m1269.1 448.5c-118.6 1.6-38.2-103.6-135-117.5 55.1 45.3-25.1 112.1 126.8 217.7 0 0-24.5-40.4-25.9-49.9-2.7-19.1 21.8-39.1 34.1-50.3z"/>
		<path id="&lt;Path&gt;" class="s1" d="m864.7 689.1c54-86.6 137.9-46.1 173.1-143.3 16.4 72.7-40.7 89.3-19.9 106.3 17.4 14.1-23.5 57.1-32.8 63.3-9.3 6.2-58.7 29.3-58.7 29.3l-69.9-19.3-14.1-29.7z"/>
		<path id="&lt;Path&gt;" class="s1" d="m1339.7 689.1c-54-86.6-138-46.1-173.2-143.3-16.3 72.7 40.8 89.3 19.9 106.3-17.4 14.1 23.6 57.1 32.9 63.3 9.3 6.2 58.6 29.3 58.6 29.3l69.9-19.3 14.2-29.7z"/>
		<g id="&lt;Clip Group&gt;" clip-path="url(#cp1)">
		</g>
	</g>
</svg>